<mxfile host="Electron" agent="Mozilla/5.0 (Windows NT 10.0; Win64; x64) AppleWebKit/537.36 (KHTML, like Gecko) draw.io/26.0.9 Chrome/128.0.6613.186 Electron/32.2.5 Safari/537.36" version="26.0.9" pages="2">
  <diagram id="R2lEEEUBdFMjLlhIrx00" name="Page-1">
    <mxGraphModel dx="1312" dy="703" grid="1" gridSize="10" guides="1" tooltips="1" connect="1" arrows="1" fold="1" page="1" pageScale="1" pageWidth="850" pageHeight="1100" math="0" shadow="0" extFonts="Permanent Marker^https://fonts.googleapis.com/css?family=Permanent+Marker">
      <root>
        <mxCell id="0" />
        <mxCell id="1" parent="0" />
        <mxCell id="DCkjyUAehPc3ZSSGONK5-9" value="Picture" style="shape=table;startSize=30;container=1;collapsible=0;childLayout=tableLayout;fixedRows=1;rowLines=0;fontStyle=0;strokeColor=default;fontSize=16;" parent="1" vertex="1">
          <mxGeometry x="150" y="20" width="210" height="150" as="geometry" />
        </mxCell>
        <mxCell id="DCkjyUAehPc3ZSSGONK5-10" value="" style="shape=tableRow;horizontal=0;startSize=0;swimlaneHead=0;swimlaneBody=0;top=0;left=0;bottom=0;right=0;collapsible=0;dropTarget=0;fillColor=none;points=[[0,0.5],[1,0.5]];portConstraint=eastwest;strokeColor=inherit;fontSize=16;" parent="DCkjyUAehPc3ZSSGONK5-9" vertex="1">
          <mxGeometry y="30" width="210" height="30" as="geometry" />
        </mxCell>
        <mxCell id="DCkjyUAehPc3ZSSGONK5-11" value="&lt;b&gt;picture_id&lt;/b&gt;" style="shape=partialRectangle;html=1;whiteSpace=wrap;connectable=0;fillColor=none;top=0;left=0;bottom=0;right=0;overflow=hidden;pointerEvents=1;strokeColor=inherit;fontSize=16;" parent="DCkjyUAehPc3ZSSGONK5-10" vertex="1">
          <mxGeometry width="90" height="30" as="geometry">
            <mxRectangle width="90" height="30" as="alternateBounds" />
          </mxGeometry>
        </mxCell>
        <mxCell id="DCkjyUAehPc3ZSSGONK5-12" value="INT NN" style="shape=partialRectangle;html=1;whiteSpace=wrap;connectable=0;fillColor=none;top=0;left=0;bottom=0;right=0;align=right;spacingLeft=6;overflow=hidden;strokeColor=inherit;fontSize=16;" parent="DCkjyUAehPc3ZSSGONK5-10" vertex="1">
          <mxGeometry x="90" width="120" height="30" as="geometry">
            <mxRectangle width="120" height="30" as="alternateBounds" />
          </mxGeometry>
        </mxCell>
        <mxCell id="DCkjyUAehPc3ZSSGONK5-13" value="" style="shape=tableRow;horizontal=0;startSize=0;swimlaneHead=0;swimlaneBody=0;top=0;left=0;bottom=0;right=0;collapsible=0;dropTarget=0;fillColor=none;points=[[0,0.5],[1,0.5]];portConstraint=eastwest;strokeColor=inherit;fontSize=16;" parent="DCkjyUAehPc3ZSSGONK5-9" vertex="1">
          <mxGeometry y="60" width="210" height="30" as="geometry" />
        </mxCell>
        <mxCell id="DCkjyUAehPc3ZSSGONK5-14" value="user_id" style="shape=partialRectangle;html=1;whiteSpace=wrap;connectable=0;fillColor=none;top=0;left=0;bottom=0;right=0;overflow=hidden;strokeColor=inherit;fontSize=16;" parent="DCkjyUAehPc3ZSSGONK5-13" vertex="1">
          <mxGeometry width="90" height="30" as="geometry">
            <mxRectangle width="90" height="30" as="alternateBounds" />
          </mxGeometry>
        </mxCell>
        <mxCell id="DCkjyUAehPc3ZSSGONK5-15" value="INT NN" style="shape=partialRectangle;html=1;whiteSpace=wrap;connectable=0;fillColor=none;top=0;left=0;bottom=0;right=0;align=right;spacingLeft=6;overflow=hidden;strokeColor=inherit;fontSize=16;" parent="DCkjyUAehPc3ZSSGONK5-13" vertex="1">
          <mxGeometry x="90" width="120" height="30" as="geometry">
            <mxRectangle width="120" height="30" as="alternateBounds" />
          </mxGeometry>
        </mxCell>
        <mxCell id="DCkjyUAehPc3ZSSGONK5-16" value="" style="shape=tableRow;horizontal=0;startSize=0;swimlaneHead=0;swimlaneBody=0;top=0;left=0;bottom=0;right=0;collapsible=0;dropTarget=0;fillColor=none;points=[[0,0.5],[1,0.5]];portConstraint=eastwest;strokeColor=inherit;fontSize=16;" parent="DCkjyUAehPc3ZSSGONK5-9" vertex="1">
          <mxGeometry y="90" width="210" height="30" as="geometry" />
        </mxCell>
        <mxCell id="DCkjyUAehPc3ZSSGONK5-17" value="picture_URL" style="shape=partialRectangle;html=1;whiteSpace=wrap;connectable=0;fillColor=none;top=0;left=0;bottom=0;right=0;overflow=hidden;strokeColor=inherit;fontSize=16;" parent="DCkjyUAehPc3ZSSGONK5-16" vertex="1">
          <mxGeometry width="90" height="30" as="geometry">
            <mxRectangle width="90" height="30" as="alternateBounds" />
          </mxGeometry>
        </mxCell>
        <mxCell id="DCkjyUAehPc3ZSSGONK5-18" value="VARCHAR NN" style="shape=partialRectangle;html=1;whiteSpace=wrap;connectable=0;fillColor=none;top=0;left=0;bottom=0;right=0;align=right;spacingLeft=6;overflow=hidden;strokeColor=inherit;fontSize=16;" parent="DCkjyUAehPc3ZSSGONK5-16" vertex="1">
          <mxGeometry x="90" width="120" height="30" as="geometry">
            <mxRectangle width="120" height="30" as="alternateBounds" />
          </mxGeometry>
        </mxCell>
        <mxCell id="DCkjyUAehPc3ZSSGONK5-19" style="shape=tableRow;horizontal=0;startSize=0;swimlaneHead=0;swimlaneBody=0;top=0;left=0;bottom=0;right=0;collapsible=0;dropTarget=0;fillColor=none;points=[[0,0.5],[1,0.5]];portConstraint=eastwest;strokeColor=inherit;fontSize=16;" parent="DCkjyUAehPc3ZSSGONK5-9" vertex="1">
          <mxGeometry y="120" width="210" height="30" as="geometry" />
        </mxCell>
        <mxCell id="DCkjyUAehPc3ZSSGONK5-20" value="task_id" style="shape=partialRectangle;html=1;whiteSpace=wrap;connectable=0;fillColor=none;top=0;left=0;bottom=0;right=0;overflow=hidden;strokeColor=inherit;fontSize=16;" parent="DCkjyUAehPc3ZSSGONK5-19" vertex="1">
          <mxGeometry width="90" height="30" as="geometry">
            <mxRectangle width="90" height="30" as="alternateBounds" />
          </mxGeometry>
        </mxCell>
        <mxCell id="DCkjyUAehPc3ZSSGONK5-21" value="INT NN" style="shape=partialRectangle;html=1;whiteSpace=wrap;connectable=0;fillColor=none;top=0;left=0;bottom=0;right=0;align=right;spacingLeft=6;overflow=hidden;strokeColor=inherit;fontSize=16;" parent="DCkjyUAehPc3ZSSGONK5-19" vertex="1">
          <mxGeometry x="90" width="120" height="30" as="geometry">
            <mxRectangle width="120" height="30" as="alternateBounds" />
          </mxGeometry>
        </mxCell>
        <mxCell id="DCkjyUAehPc3ZSSGONK5-22" value="User" style="shape=table;startSize=30;container=1;collapsible=0;childLayout=tableLayout;fixedRows=1;rowLines=0;fontStyle=0;strokeColor=default;fontSize=16;" parent="1" vertex="1">
          <mxGeometry x="410" y="20" width="210" height="180" as="geometry" />
        </mxCell>
        <mxCell id="DCkjyUAehPc3ZSSGONK5-23" value="" style="shape=tableRow;horizontal=0;startSize=0;swimlaneHead=0;swimlaneBody=0;top=0;left=0;bottom=0;right=0;collapsible=0;dropTarget=0;fillColor=none;points=[[0,0.5],[1,0.5]];portConstraint=eastwest;strokeColor=inherit;fontSize=16;" parent="DCkjyUAehPc3ZSSGONK5-22" vertex="1">
          <mxGeometry y="30" width="210" height="30" as="geometry" />
        </mxCell>
        <mxCell id="DCkjyUAehPc3ZSSGONK5-24" value="&lt;b&gt;user_id&lt;/b&gt;" style="shape=partialRectangle;html=1;whiteSpace=wrap;connectable=0;fillColor=none;top=0;left=0;bottom=0;right=0;overflow=hidden;pointerEvents=1;strokeColor=inherit;fontSize=16;" parent="DCkjyUAehPc3ZSSGONK5-23" vertex="1">
          <mxGeometry width="90" height="30" as="geometry">
            <mxRectangle width="90" height="30" as="alternateBounds" />
          </mxGeometry>
        </mxCell>
        <mxCell id="DCkjyUAehPc3ZSSGONK5-25" value="INT NN" style="shape=partialRectangle;html=1;whiteSpace=wrap;connectable=0;fillColor=none;top=0;left=0;bottom=0;right=0;align=right;spacingLeft=6;overflow=hidden;strokeColor=inherit;fontSize=16;" parent="DCkjyUAehPc3ZSSGONK5-23" vertex="1">
          <mxGeometry x="90" width="120" height="30" as="geometry">
            <mxRectangle width="120" height="30" as="alternateBounds" />
          </mxGeometry>
        </mxCell>
        <mxCell id="DCkjyUAehPc3ZSSGONK5-26" value="" style="shape=tableRow;horizontal=0;startSize=0;swimlaneHead=0;swimlaneBody=0;top=0;left=0;bottom=0;right=0;collapsible=0;dropTarget=0;fillColor=none;points=[[0,0.5],[1,0.5]];portConstraint=eastwest;strokeColor=inherit;fontSize=16;" parent="DCkjyUAehPc3ZSSGONK5-22" vertex="1">
          <mxGeometry y="60" width="210" height="30" as="geometry" />
        </mxCell>
        <mxCell id="DCkjyUAehPc3ZSSGONK5-27" value="username" style="shape=partialRectangle;html=1;whiteSpace=wrap;connectable=0;fillColor=none;top=0;left=0;bottom=0;right=0;overflow=hidden;strokeColor=inherit;fontSize=16;" parent="DCkjyUAehPc3ZSSGONK5-26" vertex="1">
          <mxGeometry width="90" height="30" as="geometry">
            <mxRectangle width="90" height="30" as="alternateBounds" />
          </mxGeometry>
        </mxCell>
        <mxCell id="DCkjyUAehPc3ZSSGONK5-28" value="VARCHAR NN" style="shape=partialRectangle;html=1;whiteSpace=wrap;connectable=0;fillColor=none;top=0;left=0;bottom=0;right=0;align=right;spacingLeft=6;overflow=hidden;strokeColor=inherit;fontSize=16;" parent="DCkjyUAehPc3ZSSGONK5-26" vertex="1">
          <mxGeometry x="90" width="120" height="30" as="geometry">
            <mxRectangle width="120" height="30" as="alternateBounds" />
          </mxGeometry>
        </mxCell>
        <mxCell id="DCkjyUAehPc3ZSSGONK5-29" value="" style="shape=tableRow;horizontal=0;startSize=0;swimlaneHead=0;swimlaneBody=0;top=0;left=0;bottom=0;right=0;collapsible=0;dropTarget=0;fillColor=none;points=[[0,0.5],[1,0.5]];portConstraint=eastwest;strokeColor=inherit;fontSize=16;" parent="DCkjyUAehPc3ZSSGONK5-22" vertex="1">
          <mxGeometry y="90" width="210" height="30" as="geometry" />
        </mxCell>
        <mxCell id="DCkjyUAehPc3ZSSGONK5-30" value="password" style="shape=partialRectangle;html=1;whiteSpace=wrap;connectable=0;fillColor=none;top=0;left=0;bottom=0;right=0;overflow=hidden;strokeColor=inherit;fontSize=16;" parent="DCkjyUAehPc3ZSSGONK5-29" vertex="1">
          <mxGeometry width="90" height="30" as="geometry">
            <mxRectangle width="90" height="30" as="alternateBounds" />
          </mxGeometry>
        </mxCell>
        <mxCell id="DCkjyUAehPc3ZSSGONK5-31" value="INT NN" style="shape=partialRectangle;html=1;whiteSpace=wrap;connectable=0;fillColor=none;top=0;left=0;bottom=0;right=0;align=right;spacingLeft=6;overflow=hidden;strokeColor=inherit;fontSize=16;" parent="DCkjyUAehPc3ZSSGONK5-29" vertex="1">
          <mxGeometry x="90" width="120" height="30" as="geometry">
            <mxRectangle width="120" height="30" as="alternateBounds" />
          </mxGeometry>
        </mxCell>
        <mxCell id="DCkjyUAehPc3ZSSGONK5-32" style="shape=tableRow;horizontal=0;startSize=0;swimlaneHead=0;swimlaneBody=0;top=0;left=0;bottom=0;right=0;collapsible=0;dropTarget=0;fillColor=none;points=[[0,0.5],[1,0.5]];portConstraint=eastwest;strokeColor=inherit;fontSize=16;" parent="DCkjyUAehPc3ZSSGONK5-22" vertex="1">
          <mxGeometry y="120" width="210" height="30" as="geometry" />
        </mxCell>
        <mxCell id="DCkjyUAehPc3ZSSGONK5-33" value="sample_id" style="shape=partialRectangle;html=1;whiteSpace=wrap;connectable=0;fillColor=none;top=0;left=0;bottom=0;right=0;overflow=hidden;strokeColor=inherit;fontSize=16;" parent="DCkjyUAehPc3ZSSGONK5-32" vertex="1">
          <mxGeometry width="90" height="30" as="geometry">
            <mxRectangle width="90" height="30" as="alternateBounds" />
          </mxGeometry>
        </mxCell>
        <mxCell id="DCkjyUAehPc3ZSSGONK5-34" value="INT" style="shape=partialRectangle;html=1;whiteSpace=wrap;connectable=0;fillColor=none;top=0;left=0;bottom=0;right=0;align=right;spacingLeft=6;overflow=hidden;strokeColor=inherit;fontSize=16;" parent="DCkjyUAehPc3ZSSGONK5-32" vertex="1">
          <mxGeometry x="90" width="120" height="30" as="geometry">
            <mxRectangle width="120" height="30" as="alternateBounds" />
          </mxGeometry>
        </mxCell>
        <mxCell id="TAG7yBYLT5O9uZngMyZ7-2" style="shape=tableRow;horizontal=0;startSize=0;swimlaneHead=0;swimlaneBody=0;top=0;left=0;bottom=0;right=0;collapsible=0;dropTarget=0;fillColor=none;points=[[0,0.5],[1,0.5]];portConstraint=eastwest;strokeColor=inherit;fontSize=16;" parent="DCkjyUAehPc3ZSSGONK5-22" vertex="1">
          <mxGeometry y="150" width="210" height="30" as="geometry" />
        </mxCell>
        <mxCell id="TAG7yBYLT5O9uZngMyZ7-3" value="birth_date" style="shape=partialRectangle;html=1;whiteSpace=wrap;connectable=0;fillColor=none;top=0;left=0;bottom=0;right=0;overflow=hidden;strokeColor=inherit;fontSize=16;" parent="TAG7yBYLT5O9uZngMyZ7-2" vertex="1">
          <mxGeometry width="90" height="30" as="geometry">
            <mxRectangle width="90" height="30" as="alternateBounds" />
          </mxGeometry>
        </mxCell>
        <mxCell id="TAG7yBYLT5O9uZngMyZ7-4" value="DATE" style="shape=partialRectangle;html=1;whiteSpace=wrap;connectable=0;fillColor=none;top=0;left=0;bottom=0;right=0;align=right;spacingLeft=6;overflow=hidden;strokeColor=inherit;fontSize=16;" parent="TAG7yBYLT5O9uZngMyZ7-2" vertex="1">
          <mxGeometry x="90" width="120" height="30" as="geometry">
            <mxRectangle width="120" height="30" as="alternateBounds" />
          </mxGeometry>
        </mxCell>
        <mxCell id="DCkjyUAehPc3ZSSGONK5-35" value="Sample" style="shape=table;startSize=30;container=1;collapsible=0;childLayout=tableLayout;fixedRows=1;rowLines=0;fontStyle=0;strokeColor=default;fontSize=16;" parent="1" vertex="1">
          <mxGeometry x="440" y="240" width="180" height="150" as="geometry" />
        </mxCell>
        <mxCell id="DCkjyUAehPc3ZSSGONK5-36" value="" style="shape=tableRow;horizontal=0;startSize=0;swimlaneHead=0;swimlaneBody=0;top=0;left=0;bottom=0;right=0;collapsible=0;dropTarget=0;fillColor=none;points=[[0,0.5],[1,0.5]];portConstraint=eastwest;strokeColor=inherit;fontSize=16;" parent="DCkjyUAehPc3ZSSGONK5-35" vertex="1">
          <mxGeometry y="30" width="180" height="30" as="geometry" />
        </mxCell>
        <mxCell id="DCkjyUAehPc3ZSSGONK5-37" value="&lt;b&gt;sample_id&lt;/b&gt;" style="shape=partialRectangle;html=1;whiteSpace=wrap;connectable=0;fillColor=none;top=0;left=0;bottom=0;right=0;overflow=hidden;pointerEvents=1;strokeColor=inherit;fontSize=16;" parent="DCkjyUAehPc3ZSSGONK5-36" vertex="1">
          <mxGeometry width="90" height="30" as="geometry">
            <mxRectangle width="90" height="30" as="alternateBounds" />
          </mxGeometry>
        </mxCell>
        <mxCell id="DCkjyUAehPc3ZSSGONK5-38" value="INT NN" style="shape=partialRectangle;html=1;whiteSpace=wrap;connectable=0;fillColor=none;top=0;left=0;bottom=0;right=0;align=right;spacingLeft=6;overflow=hidden;strokeColor=inherit;fontSize=16;" parent="DCkjyUAehPc3ZSSGONK5-36" vertex="1">
          <mxGeometry x="90" width="90" height="30" as="geometry">
            <mxRectangle width="90" height="30" as="alternateBounds" />
          </mxGeometry>
        </mxCell>
        <mxCell id="DCkjyUAehPc3ZSSGONK5-39" value="" style="shape=tableRow;horizontal=0;startSize=0;swimlaneHead=0;swimlaneBody=0;top=0;left=0;bottom=0;right=0;collapsible=0;dropTarget=0;fillColor=none;points=[[0,0.5],[1,0.5]];portConstraint=eastwest;strokeColor=inherit;fontSize=16;" parent="DCkjyUAehPc3ZSSGONK5-35" vertex="1">
          <mxGeometry y="60" width="180" height="30" as="geometry" />
        </mxCell>
        <mxCell id="DCkjyUAehPc3ZSSGONK5-40" value="categ_id_1" style="shape=partialRectangle;html=1;whiteSpace=wrap;connectable=0;fillColor=none;top=0;left=0;bottom=0;right=0;overflow=hidden;strokeColor=inherit;fontSize=16;" parent="DCkjyUAehPc3ZSSGONK5-39" vertex="1">
          <mxGeometry width="90" height="30" as="geometry">
            <mxRectangle width="90" height="30" as="alternateBounds" />
          </mxGeometry>
        </mxCell>
        <mxCell id="DCkjyUAehPc3ZSSGONK5-41" value="INT NN" style="shape=partialRectangle;html=1;whiteSpace=wrap;connectable=0;fillColor=none;top=0;left=0;bottom=0;right=0;align=right;spacingLeft=6;overflow=hidden;strokeColor=inherit;fontSize=16;" parent="DCkjyUAehPc3ZSSGONK5-39" vertex="1">
          <mxGeometry x="90" width="90" height="30" as="geometry">
            <mxRectangle width="90" height="30" as="alternateBounds" />
          </mxGeometry>
        </mxCell>
        <mxCell id="DCkjyUAehPc3ZSSGONK5-42" value="" style="shape=tableRow;horizontal=0;startSize=0;swimlaneHead=0;swimlaneBody=0;top=0;left=0;bottom=0;right=0;collapsible=0;dropTarget=0;fillColor=none;points=[[0,0.5],[1,0.5]];portConstraint=eastwest;strokeColor=inherit;fontSize=16;" parent="DCkjyUAehPc3ZSSGONK5-35" vertex="1">
          <mxGeometry y="90" width="180" height="30" as="geometry" />
        </mxCell>
        <mxCell id="DCkjyUAehPc3ZSSGONK5-43" value="categ_id_2" style="shape=partialRectangle;html=1;whiteSpace=wrap;connectable=0;fillColor=none;top=0;left=0;bottom=0;right=0;overflow=hidden;strokeColor=inherit;fontSize=16;" parent="DCkjyUAehPc3ZSSGONK5-42" vertex="1">
          <mxGeometry width="90" height="30" as="geometry">
            <mxRectangle width="90" height="30" as="alternateBounds" />
          </mxGeometry>
        </mxCell>
        <mxCell id="DCkjyUAehPc3ZSSGONK5-44" value="INT" style="shape=partialRectangle;html=1;whiteSpace=wrap;connectable=0;fillColor=none;top=0;left=0;bottom=0;right=0;align=right;spacingLeft=6;overflow=hidden;strokeColor=inherit;fontSize=16;" parent="DCkjyUAehPc3ZSSGONK5-42" vertex="1">
          <mxGeometry x="90" width="90" height="30" as="geometry">
            <mxRectangle width="90" height="30" as="alternateBounds" />
          </mxGeometry>
        </mxCell>
        <mxCell id="DCkjyUAehPc3ZSSGONK5-45" style="shape=tableRow;horizontal=0;startSize=0;swimlaneHead=0;swimlaneBody=0;top=0;left=0;bottom=0;right=0;collapsible=0;dropTarget=0;fillColor=none;points=[[0,0.5],[1,0.5]];portConstraint=eastwest;strokeColor=inherit;fontSize=16;" parent="DCkjyUAehPc3ZSSGONK5-35" vertex="1">
          <mxGeometry y="120" width="180" height="30" as="geometry" />
        </mxCell>
        <mxCell id="DCkjyUAehPc3ZSSGONK5-46" value="categ_id_3" style="shape=partialRectangle;html=1;whiteSpace=wrap;connectable=0;fillColor=none;top=0;left=0;bottom=0;right=0;overflow=hidden;strokeColor=inherit;fontSize=16;" parent="DCkjyUAehPc3ZSSGONK5-45" vertex="1">
          <mxGeometry width="90" height="30" as="geometry">
            <mxRectangle width="90" height="30" as="alternateBounds" />
          </mxGeometry>
        </mxCell>
        <mxCell id="DCkjyUAehPc3ZSSGONK5-47" value="INT" style="shape=partialRectangle;html=1;whiteSpace=wrap;connectable=0;fillColor=none;top=0;left=0;bottom=0;right=0;align=right;spacingLeft=6;overflow=hidden;strokeColor=inherit;fontSize=16;" parent="DCkjyUAehPc3ZSSGONK5-45" vertex="1">
          <mxGeometry x="90" width="90" height="30" as="geometry">
            <mxRectangle width="90" height="30" as="alternateBounds" />
          </mxGeometry>
        </mxCell>
        <mxCell id="DCkjyUAehPc3ZSSGONK5-48" value="Tags" style="shape=table;startSize=30;container=1;collapsible=0;childLayout=tableLayout;fixedRows=1;rowLines=0;fontStyle=0;strokeColor=default;fontSize=16;" parent="1" vertex="1">
          <mxGeometry x="160" y="470" width="210" height="120" as="geometry" />
        </mxCell>
        <mxCell id="DCkjyUAehPc3ZSSGONK5-49" value="" style="shape=tableRow;horizontal=0;startSize=0;swimlaneHead=0;swimlaneBody=0;top=0;left=0;bottom=0;right=0;collapsible=0;dropTarget=0;fillColor=none;points=[[0,0.5],[1,0.5]];portConstraint=eastwest;strokeColor=inherit;fontSize=16;" parent="DCkjyUAehPc3ZSSGONK5-48" vertex="1">
          <mxGeometry y="30" width="210" height="30" as="geometry" />
        </mxCell>
        <mxCell id="DCkjyUAehPc3ZSSGONK5-50" value="&lt;b&gt;tag_id&lt;/b&gt;" style="shape=partialRectangle;html=1;whiteSpace=wrap;connectable=0;fillColor=none;top=0;left=0;bottom=0;right=0;overflow=hidden;pointerEvents=1;strokeColor=inherit;fontSize=16;" parent="DCkjyUAehPc3ZSSGONK5-49" vertex="1">
          <mxGeometry width="90" height="30" as="geometry">
            <mxRectangle width="90" height="30" as="alternateBounds" />
          </mxGeometry>
        </mxCell>
        <mxCell id="DCkjyUAehPc3ZSSGONK5-51" value="INT NN" style="shape=partialRectangle;html=1;whiteSpace=wrap;connectable=0;fillColor=none;top=0;left=0;bottom=0;right=0;align=right;spacingLeft=6;overflow=hidden;strokeColor=inherit;fontSize=16;" parent="DCkjyUAehPc3ZSSGONK5-49" vertex="1">
          <mxGeometry x="90" width="120" height="30" as="geometry">
            <mxRectangle width="120" height="30" as="alternateBounds" />
          </mxGeometry>
        </mxCell>
        <mxCell id="DCkjyUAehPc3ZSSGONK5-52" value="" style="shape=tableRow;horizontal=0;startSize=0;swimlaneHead=0;swimlaneBody=0;top=0;left=0;bottom=0;right=0;collapsible=0;dropTarget=0;fillColor=none;points=[[0,0.5],[1,0.5]];portConstraint=eastwest;strokeColor=inherit;fontSize=16;" parent="DCkjyUAehPc3ZSSGONK5-48" vertex="1">
          <mxGeometry y="60" width="210" height="30" as="geometry" />
        </mxCell>
        <mxCell id="DCkjyUAehPc3ZSSGONK5-53" value="tag_name" style="shape=partialRectangle;html=1;whiteSpace=wrap;connectable=0;fillColor=none;top=0;left=0;bottom=0;right=0;overflow=hidden;strokeColor=inherit;fontSize=16;" parent="DCkjyUAehPc3ZSSGONK5-52" vertex="1">
          <mxGeometry width="90" height="30" as="geometry">
            <mxRectangle width="90" height="30" as="alternateBounds" />
          </mxGeometry>
        </mxCell>
        <mxCell id="DCkjyUAehPc3ZSSGONK5-54" value="VARCHAR NN" style="shape=partialRectangle;html=1;whiteSpace=wrap;connectable=0;fillColor=none;top=0;left=0;bottom=0;right=0;align=right;spacingLeft=6;overflow=hidden;strokeColor=inherit;fontSize=16;" parent="DCkjyUAehPc3ZSSGONK5-52" vertex="1">
          <mxGeometry x="90" width="120" height="30" as="geometry">
            <mxRectangle width="120" height="30" as="alternateBounds" />
          </mxGeometry>
        </mxCell>
        <mxCell id="DCkjyUAehPc3ZSSGONK5-55" value="" style="shape=tableRow;horizontal=0;startSize=0;swimlaneHead=0;swimlaneBody=0;top=0;left=0;bottom=0;right=0;collapsible=0;dropTarget=0;fillColor=none;points=[[0,0.5],[1,0.5]];portConstraint=eastwest;strokeColor=inherit;fontSize=16;" parent="DCkjyUAehPc3ZSSGONK5-48" vertex="1">
          <mxGeometry y="90" width="210" height="30" as="geometry" />
        </mxCell>
        <mxCell id="DCkjyUAehPc3ZSSGONK5-56" value="categ_id" style="shape=partialRectangle;html=1;whiteSpace=wrap;connectable=0;fillColor=none;top=0;left=0;bottom=0;right=0;overflow=hidden;strokeColor=inherit;fontSize=16;" parent="DCkjyUAehPc3ZSSGONK5-55" vertex="1">
          <mxGeometry width="90" height="30" as="geometry">
            <mxRectangle width="90" height="30" as="alternateBounds" />
          </mxGeometry>
        </mxCell>
        <mxCell id="DCkjyUAehPc3ZSSGONK5-57" value="INT NN" style="shape=partialRectangle;html=1;whiteSpace=wrap;connectable=0;fillColor=none;top=0;left=0;bottom=0;right=0;align=right;spacingLeft=6;overflow=hidden;strokeColor=inherit;fontSize=16;" parent="DCkjyUAehPc3ZSSGONK5-55" vertex="1">
          <mxGeometry x="90" width="120" height="30" as="geometry">
            <mxRectangle width="120" height="30" as="alternateBounds" />
          </mxGeometry>
        </mxCell>
        <mxCell id="DCkjyUAehPc3ZSSGONK5-61" value="Categories" style="shape=table;startSize=30;container=1;collapsible=0;childLayout=tableLayout;fixedRows=1;rowLines=0;fontStyle=0;strokeColor=default;fontSize=16;" parent="1" vertex="1">
          <mxGeometry x="440" y="470" width="210" height="90" as="geometry" />
        </mxCell>
        <mxCell id="DCkjyUAehPc3ZSSGONK5-62" value="" style="shape=tableRow;horizontal=0;startSize=0;swimlaneHead=0;swimlaneBody=0;top=0;left=0;bottom=0;right=0;collapsible=0;dropTarget=0;fillColor=none;points=[[0,0.5],[1,0.5]];portConstraint=eastwest;strokeColor=inherit;fontSize=16;" parent="DCkjyUAehPc3ZSSGONK5-61" vertex="1">
          <mxGeometry y="30" width="210" height="30" as="geometry" />
        </mxCell>
        <mxCell id="DCkjyUAehPc3ZSSGONK5-63" value="&lt;b&gt;categ_id&lt;/b&gt;" style="shape=partialRectangle;html=1;whiteSpace=wrap;connectable=0;fillColor=none;top=0;left=0;bottom=0;right=0;overflow=hidden;pointerEvents=1;strokeColor=inherit;fontSize=16;" parent="DCkjyUAehPc3ZSSGONK5-62" vertex="1">
          <mxGeometry width="90" height="30" as="geometry">
            <mxRectangle width="90" height="30" as="alternateBounds" />
          </mxGeometry>
        </mxCell>
        <mxCell id="DCkjyUAehPc3ZSSGONK5-64" value="INT NN" style="shape=partialRectangle;html=1;whiteSpace=wrap;connectable=0;fillColor=none;top=0;left=0;bottom=0;right=0;align=right;spacingLeft=6;overflow=hidden;strokeColor=inherit;fontSize=16;" parent="DCkjyUAehPc3ZSSGONK5-62" vertex="1">
          <mxGeometry x="90" width="120" height="30" as="geometry">
            <mxRectangle width="120" height="30" as="alternateBounds" />
          </mxGeometry>
        </mxCell>
        <mxCell id="DCkjyUAehPc3ZSSGONK5-65" value="" style="shape=tableRow;horizontal=0;startSize=0;swimlaneHead=0;swimlaneBody=0;top=0;left=0;bottom=0;right=0;collapsible=0;dropTarget=0;fillColor=none;points=[[0,0.5],[1,0.5]];portConstraint=eastwest;strokeColor=inherit;fontSize=16;" parent="DCkjyUAehPc3ZSSGONK5-61" vertex="1">
          <mxGeometry y="60" width="210" height="30" as="geometry" />
        </mxCell>
        <mxCell id="DCkjyUAehPc3ZSSGONK5-66" value="categ_name" style="shape=partialRectangle;html=1;whiteSpace=wrap;connectable=0;fillColor=none;top=0;left=0;bottom=0;right=0;overflow=hidden;strokeColor=inherit;fontSize=16;" parent="DCkjyUAehPc3ZSSGONK5-65" vertex="1">
          <mxGeometry width="90" height="30" as="geometry">
            <mxRectangle width="90" height="30" as="alternateBounds" />
          </mxGeometry>
        </mxCell>
        <mxCell id="DCkjyUAehPc3ZSSGONK5-67" value="VARCHAR NN" style="shape=partialRectangle;html=1;whiteSpace=wrap;connectable=0;fillColor=none;top=0;left=0;bottom=0;right=0;align=right;spacingLeft=6;overflow=hidden;strokeColor=inherit;fontSize=16;" parent="DCkjyUAehPc3ZSSGONK5-65" vertex="1">
          <mxGeometry x="90" width="120" height="30" as="geometry">
            <mxRectangle width="120" height="30" as="alternateBounds" />
          </mxGeometry>
        </mxCell>
        <mxCell id="DCkjyUAehPc3ZSSGONK5-74" value="Task" style="shape=table;startSize=30;container=1;collapsible=0;childLayout=tableLayout;fixedRows=1;rowLines=0;fontStyle=0;strokeColor=default;fontSize=16;" parent="1" vertex="1">
          <mxGeometry x="160" y="240" width="180" height="180" as="geometry" />
        </mxCell>
        <mxCell id="DCkjyUAehPc3ZSSGONK5-75" value="" style="shape=tableRow;horizontal=0;startSize=0;swimlaneHead=0;swimlaneBody=0;top=0;left=0;bottom=0;right=0;collapsible=0;dropTarget=0;fillColor=none;points=[[0,0.5],[1,0.5]];portConstraint=eastwest;strokeColor=inherit;fontSize=16;" parent="DCkjyUAehPc3ZSSGONK5-74" vertex="1">
          <mxGeometry y="30" width="180" height="30" as="geometry" />
        </mxCell>
        <mxCell id="DCkjyUAehPc3ZSSGONK5-76" value="&lt;b&gt;task_id&lt;/b&gt;" style="shape=partialRectangle;html=1;whiteSpace=wrap;connectable=0;fillColor=none;top=0;left=0;bottom=0;right=0;overflow=hidden;pointerEvents=1;strokeColor=inherit;fontSize=16;" parent="DCkjyUAehPc3ZSSGONK5-75" vertex="1">
          <mxGeometry width="90" height="30" as="geometry">
            <mxRectangle width="90" height="30" as="alternateBounds" />
          </mxGeometry>
        </mxCell>
        <mxCell id="DCkjyUAehPc3ZSSGONK5-77" value="INT NN" style="shape=partialRectangle;html=1;whiteSpace=wrap;connectable=0;fillColor=none;top=0;left=0;bottom=0;right=0;align=right;spacingLeft=6;overflow=hidden;strokeColor=inherit;fontSize=16;" parent="DCkjyUAehPc3ZSSGONK5-75" vertex="1">
          <mxGeometry x="90" width="90" height="30" as="geometry">
            <mxRectangle width="90" height="30" as="alternateBounds" />
          </mxGeometry>
        </mxCell>
        <mxCell id="DCkjyUAehPc3ZSSGONK5-78" value="" style="shape=tableRow;horizontal=0;startSize=0;swimlaneHead=0;swimlaneBody=0;top=0;left=0;bottom=0;right=0;collapsible=0;dropTarget=0;fillColor=none;points=[[0,0.5],[1,0.5]];portConstraint=eastwest;strokeColor=inherit;fontSize=16;" parent="DCkjyUAehPc3ZSSGONK5-74" vertex="1">
          <mxGeometry y="60" width="180" height="30" as="geometry" />
        </mxCell>
        <mxCell id="DCkjyUAehPc3ZSSGONK5-79" value="sample_id" style="shape=partialRectangle;html=1;whiteSpace=wrap;connectable=0;fillColor=none;top=0;left=0;bottom=0;right=0;overflow=hidden;strokeColor=inherit;fontSize=16;" parent="DCkjyUAehPc3ZSSGONK5-78" vertex="1">
          <mxGeometry width="90" height="30" as="geometry">
            <mxRectangle width="90" height="30" as="alternateBounds" />
          </mxGeometry>
        </mxCell>
        <mxCell id="DCkjyUAehPc3ZSSGONK5-80" value="INT NN" style="shape=partialRectangle;html=1;whiteSpace=wrap;connectable=0;fillColor=none;top=0;left=0;bottom=0;right=0;align=right;spacingLeft=6;overflow=hidden;strokeColor=inherit;fontSize=16;" parent="DCkjyUAehPc3ZSSGONK5-78" vertex="1">
          <mxGeometry x="90" width="90" height="30" as="geometry">
            <mxRectangle width="90" height="30" as="alternateBounds" />
          </mxGeometry>
        </mxCell>
        <mxCell id="DCkjyUAehPc3ZSSGONK5-81" value="" style="shape=tableRow;horizontal=0;startSize=0;swimlaneHead=0;swimlaneBody=0;top=0;left=0;bottom=0;right=0;collapsible=0;dropTarget=0;fillColor=none;points=[[0,0.5],[1,0.5]];portConstraint=eastwest;strokeColor=inherit;fontSize=16;" parent="DCkjyUAehPc3ZSSGONK5-74" vertex="1">
          <mxGeometry y="90" width="180" height="30" as="geometry" />
        </mxCell>
        <mxCell id="DCkjyUAehPc3ZSSGONK5-82" value="tag_id_1" style="shape=partialRectangle;html=1;whiteSpace=wrap;connectable=0;fillColor=none;top=0;left=0;bottom=0;right=0;overflow=hidden;strokeColor=inherit;fontSize=16;" parent="DCkjyUAehPc3ZSSGONK5-81" vertex="1">
          <mxGeometry width="90" height="30" as="geometry">
            <mxRectangle width="90" height="30" as="alternateBounds" />
          </mxGeometry>
        </mxCell>
        <mxCell id="DCkjyUAehPc3ZSSGONK5-83" value="INT NN" style="shape=partialRectangle;html=1;whiteSpace=wrap;connectable=0;fillColor=none;top=0;left=0;bottom=0;right=0;align=right;spacingLeft=6;overflow=hidden;strokeColor=inherit;fontSize=16;" parent="DCkjyUAehPc3ZSSGONK5-81" vertex="1">
          <mxGeometry x="90" width="90" height="30" as="geometry">
            <mxRectangle width="90" height="30" as="alternateBounds" />
          </mxGeometry>
        </mxCell>
        <mxCell id="DCkjyUAehPc3ZSSGONK5-84" style="shape=tableRow;horizontal=0;startSize=0;swimlaneHead=0;swimlaneBody=0;top=0;left=0;bottom=0;right=0;collapsible=0;dropTarget=0;fillColor=none;points=[[0,0.5],[1,0.5]];portConstraint=eastwest;strokeColor=inherit;fontSize=16;" parent="DCkjyUAehPc3ZSSGONK5-74" vertex="1">
          <mxGeometry y="120" width="180" height="30" as="geometry" />
        </mxCell>
        <mxCell id="DCkjyUAehPc3ZSSGONK5-85" value="tag_id_2" style="shape=partialRectangle;html=1;whiteSpace=wrap;connectable=0;fillColor=none;top=0;left=0;bottom=0;right=0;overflow=hidden;strokeColor=inherit;fontSize=16;" parent="DCkjyUAehPc3ZSSGONK5-84" vertex="1">
          <mxGeometry width="90" height="30" as="geometry">
            <mxRectangle width="90" height="30" as="alternateBounds" />
          </mxGeometry>
        </mxCell>
        <mxCell id="DCkjyUAehPc3ZSSGONK5-86" value="INT" style="shape=partialRectangle;html=1;whiteSpace=wrap;connectable=0;fillColor=none;top=0;left=0;bottom=0;right=0;align=right;spacingLeft=6;overflow=hidden;strokeColor=inherit;fontSize=16;" parent="DCkjyUAehPc3ZSSGONK5-84" vertex="1">
          <mxGeometry x="90" width="90" height="30" as="geometry">
            <mxRectangle width="90" height="30" as="alternateBounds" />
          </mxGeometry>
        </mxCell>
        <mxCell id="DCkjyUAehPc3ZSSGONK5-87" style="shape=tableRow;horizontal=0;startSize=0;swimlaneHead=0;swimlaneBody=0;top=0;left=0;bottom=0;right=0;collapsible=0;dropTarget=0;fillColor=none;points=[[0,0.5],[1,0.5]];portConstraint=eastwest;strokeColor=inherit;fontSize=16;" parent="DCkjyUAehPc3ZSSGONK5-74" vertex="1">
          <mxGeometry y="150" width="180" height="30" as="geometry" />
        </mxCell>
        <mxCell id="DCkjyUAehPc3ZSSGONK5-88" value="tag_id_3" style="shape=partialRectangle;html=1;whiteSpace=wrap;connectable=0;fillColor=none;top=0;left=0;bottom=0;right=0;overflow=hidden;strokeColor=inherit;fontSize=16;" parent="DCkjyUAehPc3ZSSGONK5-87" vertex="1">
          <mxGeometry width="90" height="30" as="geometry">
            <mxRectangle width="90" height="30" as="alternateBounds" />
          </mxGeometry>
        </mxCell>
        <mxCell id="DCkjyUAehPc3ZSSGONK5-89" value="INT" style="shape=partialRectangle;html=1;whiteSpace=wrap;connectable=0;fillColor=none;top=0;left=0;bottom=0;right=0;align=right;spacingLeft=6;overflow=hidden;strokeColor=inherit;fontSize=16;" parent="DCkjyUAehPc3ZSSGONK5-87" vertex="1">
          <mxGeometry x="90" width="90" height="30" as="geometry">
            <mxRectangle width="90" height="30" as="alternateBounds" />
          </mxGeometry>
        </mxCell>
        <mxCell id="DCkjyUAehPc3ZSSGONK5-94" style="edgeStyle=orthogonalEdgeStyle;rounded=0;orthogonalLoop=1;jettySize=auto;html=1;exitX=0.5;exitY=0;exitDx=0;exitDy=0;entryX=0.5;entryY=1.027;entryDx=0;entryDy=0;entryPerimeter=0;endArrow=ERzeroToMany;endFill=0;" parent="1" source="DCkjyUAehPc3ZSSGONK5-48" target="DCkjyUAehPc3ZSSGONK5-87" edge="1">
          <mxGeometry relative="1" as="geometry" />
        </mxCell>
        <mxCell id="DCkjyUAehPc3ZSSGONK5-97" style="edgeStyle=orthogonalEdgeStyle;rounded=0;orthogonalLoop=1;jettySize=auto;html=1;exitX=0.5;exitY=0;exitDx=0;exitDy=0;entryX=0.496;entryY=0.987;entryDx=0;entryDy=0;entryPerimeter=0;endArrow=ERzeroToMany;endFill=0;" parent="1" source="DCkjyUAehPc3ZSSGONK5-61" target="DCkjyUAehPc3ZSSGONK5-45" edge="1">
          <mxGeometry relative="1" as="geometry">
            <Array as="points">
              <mxPoint x="529" y="470" />
            </Array>
          </mxGeometry>
        </mxCell>
        <mxCell id="DCkjyUAehPc3ZSSGONK5-98" style="edgeStyle=orthogonalEdgeStyle;rounded=0;orthogonalLoop=1;jettySize=auto;html=1;exitX=1;exitY=0.5;exitDx=0;exitDy=0;entryX=1;entryY=0.5;entryDx=0;entryDy=0;" parent="1" source="DCkjyUAehPc3ZSSGONK5-36" target="DCkjyUAehPc3ZSSGONK5-32" edge="1">
          <mxGeometry relative="1" as="geometry" />
        </mxCell>
        <mxCell id="DCkjyUAehPc3ZSSGONK5-99" style="edgeStyle=orthogonalEdgeStyle;rounded=0;orthogonalLoop=1;jettySize=auto;html=1;exitX=0;exitY=0.5;exitDx=0;exitDy=0;entryX=1;entryY=0.5;entryDx=0;entryDy=0;endArrow=ERzeroToMany;endFill=0;" parent="1" source="DCkjyUAehPc3ZSSGONK5-62" target="DCkjyUAehPc3ZSSGONK5-55" edge="1">
          <mxGeometry relative="1" as="geometry" />
        </mxCell>
        <mxCell id="DCkjyUAehPc3ZSSGONK5-100" style="edgeStyle=orthogonalEdgeStyle;rounded=0;orthogonalLoop=1;jettySize=auto;html=1;exitX=0;exitY=0.5;exitDx=0;exitDy=0;entryX=1;entryY=0.5;entryDx=0;entryDy=0;endArrow=ERzeroToMany;endFill=0;" parent="1" source="DCkjyUAehPc3ZSSGONK5-36" target="DCkjyUAehPc3ZSSGONK5-78" edge="1">
          <mxGeometry relative="1" as="geometry">
            <Array as="points">
              <mxPoint x="390" y="285" />
              <mxPoint x="390" y="315" />
            </Array>
          </mxGeometry>
        </mxCell>
        <mxCell id="1W0J2DrtldUN5lVcnWxK-11" style="edgeStyle=orthogonalEdgeStyle;rounded=0;orthogonalLoop=1;jettySize=auto;html=1;exitX=0;exitY=0.5;exitDx=0;exitDy=0;entryX=0;entryY=0.5;entryDx=0;entryDy=0;" parent="1" source="DCkjyUAehPc3ZSSGONK5-75" target="DCkjyUAehPc3ZSSGONK5-19" edge="1">
          <mxGeometry relative="1" as="geometry">
            <Array as="points">
              <mxPoint x="160" y="280" />
              <mxPoint x="120" y="280" />
              <mxPoint x="120" y="155" />
            </Array>
          </mxGeometry>
        </mxCell>
        <mxCell id="1W0J2DrtldUN5lVcnWxK-12" style="edgeStyle=orthogonalEdgeStyle;rounded=0;orthogonalLoop=1;jettySize=auto;html=1;exitX=0;exitY=0.5;exitDx=0;exitDy=0;entryX=1;entryY=0.5;entryDx=0;entryDy=0;" parent="1" source="DCkjyUAehPc3ZSSGONK5-81" edge="1">
          <mxGeometry relative="1" as="geometry">
            <Array as="points">
              <mxPoint x="120" y="345" />
              <mxPoint x="120" y="195" />
            </Array>
          </mxGeometry>
        </mxCell>
        <mxCell id="1W0J2DrtldUN5lVcnWxK-13" style="edgeStyle=orthogonalEdgeStyle;rounded=0;orthogonalLoop=1;jettySize=auto;html=1;exitX=0;exitY=0.5;exitDx=0;exitDy=0;entryX=1;entryY=0.5;entryDx=0;entryDy=0;" parent="1" source="DCkjyUAehPc3ZSSGONK5-84" edge="1">
          <mxGeometry relative="1" as="geometry">
            <Array as="points">
              <mxPoint x="110" y="375" />
              <mxPoint x="110" y="225" />
            </Array>
          </mxGeometry>
        </mxCell>
        <mxCell id="1W0J2DrtldUN5lVcnWxK-14" style="edgeStyle=orthogonalEdgeStyle;rounded=0;orthogonalLoop=1;jettySize=auto;html=1;exitX=0;exitY=0.5;exitDx=0;exitDy=0;entryX=1;entryY=0.5;entryDx=0;entryDy=0;" parent="1" source="DCkjyUAehPc3ZSSGONK5-87" edge="1">
          <mxGeometry relative="1" as="geometry">
            <Array as="points">
              <mxPoint x="100" y="405" />
              <mxPoint x="100" y="255" />
            </Array>
          </mxGeometry>
        </mxCell>
        <mxCell id="1W0J2DrtldUN5lVcnWxK-15" style="edgeStyle=orthogonalEdgeStyle;rounded=0;orthogonalLoop=1;jettySize=auto;html=1;exitX=0;exitY=0.5;exitDx=0;exitDy=0;endArrow=ERzeroToMany;endFill=0;entryX=1;entryY=0.5;entryDx=0;entryDy=0;" parent="1" source="DCkjyUAehPc3ZSSGONK5-23" target="DCkjyUAehPc3ZSSGONK5-13" edge="1">
          <mxGeometry relative="1" as="geometry">
            <Array as="points">
              <mxPoint x="390" y="65" />
              <mxPoint x="390" y="95" />
            </Array>
            <mxPoint x="400" y="10" as="targetPoint" />
          </mxGeometry>
        </mxCell>
      </root>
    </mxGraphModel>
  </diagram>
  <diagram id="oxnhqE3qF_IIKLXZGJ2j" name="Страница — 2">
    <mxGraphModel dx="1050" dy="669" grid="1" gridSize="10" guides="1" tooltips="1" connect="1" arrows="1" fold="1" page="1" pageScale="1" pageWidth="827" pageHeight="1169" math="0" shadow="0">
      <root>
        <mxCell id="0" />
        <mxCell id="1" parent="0" />
      </root>
    </mxGraphModel>
  </diagram>
</mxfile>
